<svg width="117" height="54" viewBox="0 0 117 54" fill="none" xmlns="http://www.w3.org/2000/svg">
<g filter="url(#filter0_d_101_8)">
<mask id="path-1-outside-1_101_8" maskUnits="userSpaceOnUse" x="3.76801" y="0.632019" width="114" height="49" fill="black">
<rect fill="white" x="3.76801" y="0.632019" width="114" height="49"/>
<path d="M26.664 32.16C26.664 34.72 26.344 37.0134 25.704 39.04C25.0853 41.0667 24.1573 42.784 22.92 44.192C21.704 45.5787 20.2 46.6454 18.408 47.392C16.616 48.1387 14.5573 48.512 12.232 48.512C10.12 48.512 7.96534 48.2134 5.76801 47.616C5.81067 46.9974 5.86401 46.3894 5.92801 45.792C5.99201 45.1734 6.04534 44.5654 6.08801 43.968C6.13067 43.6054 6.25867 43.3174 6.47201 43.104C6.70667 42.8694 7.05867 42.752 7.52801 42.752C7.91201 42.752 8.41334 42.848 9.03201 43.04C9.67201 43.232 10.5253 43.328 11.592 43.328C13 43.328 14.2587 43.1147 15.368 42.688C16.4773 42.2614 17.4053 41.6 18.152 40.704C18.8987 39.808 19.464 38.6667 19.848 37.28C20.2533 35.872 20.456 34.208 20.456 32.288V2.14402H26.664V32.16Z"/>
<path d="M47.5185 25.408C45.2572 26.6027 43.5505 28.0534 42.3985 29.76C41.2678 31.4667 40.7025 33.3227 40.7025 35.328C40.7025 36.7147 40.9585 37.9414 41.4705 39.008C41.9825 40.0534 42.6545 40.9387 43.4865 41.664C44.3185 42.3894 45.2678 42.944 46.3345 43.328C47.4012 43.6907 48.4892 43.872 49.5985 43.872C51.9878 43.872 54.1318 43.4347 56.0305 42.56C57.9505 41.6854 59.6252 40.512 61.0545 39.04L47.5185 25.408ZM77.0865 48H71.5505C70.9318 48 70.4305 47.9254 70.0465 47.776C69.6625 47.6267 69.2465 47.3174 68.7985 46.848L64.1585 42.176C62.1532 44.1174 59.8385 45.664 57.2145 46.816C54.6118 47.9467 51.7425 48.512 48.6065 48.512C46.8998 48.512 45.2252 48.224 43.5825 47.648C41.9612 47.072 40.4998 46.24 39.1985 45.152C37.8972 44.0427 36.8518 42.6987 36.0625 41.12C35.2732 39.5414 34.8785 37.76 34.8785 35.776C34.8785 34.2827 35.1238 32.8747 35.6145 31.552C36.1265 30.208 36.8305 28.9707 37.7265 27.84C38.6225 26.7094 39.6785 25.696 40.8945 24.8C42.1105 23.904 43.4438 23.136 44.8945 22.496C43.5932 20.832 42.6332 19.232 42.0145 17.696C41.3958 16.1387 41.0865 14.528 41.0865 12.864C41.0865 11.3067 41.3638 9.84536 41.9185 8.48002C42.4945 7.11469 43.3158 5.93069 44.3825 4.92802C45.4492 3.90402 46.7398 3.10402 48.2545 2.52802C49.7905 1.93069 51.5078 1.63202 53.4065 1.63202C55.0918 1.63202 56.6278 1.90935 58.0145 2.46402C59.4012 2.99735 60.5958 3.71202 61.5985 4.60802C62.6012 5.50402 63.3905 6.54936 63.9665 7.74402C64.5638 8.91735 64.9052 10.144 64.9905 11.424L61.4385 12.128C60.7345 12.2987 60.2118 11.968 59.8705 11.136C59.7212 10.5814 59.4758 10.0054 59.1345 9.40802C58.8145 8.81069 58.3878 8.26669 57.8545 7.77602C57.3425 7.28535 56.7132 6.88002 55.9665 6.56002C55.2412 6.24002 54.3878 6.08002 53.4065 6.08002C52.3398 6.08002 51.3692 6.25069 50.4945 6.59202C49.6412 6.93335 48.9052 7.41335 48.2865 8.03202C47.6892 8.62935 47.2305 9.34402 46.9105 10.176C46.5905 10.9867 46.4305 11.872 46.4305 12.832C46.4305 13.5787 46.5158 14.2934 46.6865 14.976C46.8572 15.6587 47.1238 16.352 47.4865 17.056C47.8705 17.76 48.3505 18.4747 48.9265 19.2C49.5025 19.9254 50.1958 20.6934 51.0065 21.504L64.1905 34.912C65.0012 33.4614 65.6518 31.9574 66.1425 30.4C66.6332 28.8214 66.9532 27.2534 67.1025 25.696C67.1452 25.2907 67.2732 24.9707 67.4865 24.736C67.6998 24.5014 67.9985 24.384 68.3825 24.384H71.8705C71.8492 26.8374 71.4652 29.248 70.7185 31.616C69.9718 33.9627 68.8945 36.1707 67.4865 38.24L77.0865 48Z"/>
<path d="M99.577 43.072C101.348 43.072 102.873 42.8694 104.153 42.464C105.433 42.0587 106.478 41.4934 107.289 40.768C108.121 40.0214 108.729 39.1467 109.113 38.144C109.497 37.12 109.689 36 109.689 34.784C109.689 32.416 108.846 30.5494 107.161 29.184C105.476 27.7974 102.948 27.104 99.577 27.104H89.657V43.072H99.577ZM89.657 7.04002V22.688H97.849C99.5983 22.688 101.113 22.496 102.393 22.112C103.694 21.728 104.761 21.1947 105.593 20.512C106.446 19.8294 107.076 19.008 107.481 18.048C107.886 17.0667 108.089 16 108.089 14.848C108.089 12.1387 107.278 10.1654 105.657 8.92802C104.036 7.66935 101.518 7.04002 98.105 7.04002H89.657ZM98.105 2.14402C100.921 2.14402 103.342 2.42135 105.369 2.97602C107.417 3.53069 109.092 4.32002 110.393 5.34402C111.716 6.36802 112.686 7.62669 113.305 9.12002C113.924 10.592 114.233 12.256 114.233 14.112C114.233 15.2427 114.052 16.3307 113.689 17.376C113.348 18.4 112.825 19.36 112.121 20.256C111.417 21.152 110.521 21.9627 109.433 22.688C108.366 23.392 107.108 23.968 105.657 24.416C109.028 25.056 111.556 26.2614 113.241 28.032C114.948 29.7814 115.801 32.0854 115.801 34.944C115.801 36.8854 115.438 38.656 114.713 40.256C114.009 41.856 112.964 43.232 111.577 44.384C110.212 45.536 108.526 46.432 106.521 47.072C104.516 47.6907 102.233 48 99.673 48H83.481V2.14402H98.105Z"/>
</mask>
<path d="M26.664 32.16C26.664 34.72 26.344 37.0134 25.704 39.04C25.0853 41.0667 24.1573 42.784 22.92 44.192C21.704 45.5787 20.2 46.6454 18.408 47.392C16.616 48.1387 14.5573 48.512 12.232 48.512C10.12 48.512 7.96534 48.2134 5.76801 47.616C5.81067 46.9974 5.86401 46.3894 5.92801 45.792C5.99201 45.1734 6.04534 44.5654 6.08801 43.968C6.13067 43.6054 6.25867 43.3174 6.47201 43.104C6.70667 42.8694 7.05867 42.752 7.52801 42.752C7.91201 42.752 8.41334 42.848 9.03201 43.04C9.67201 43.232 10.5253 43.328 11.592 43.328C13 43.328 14.2587 43.1147 15.368 42.688C16.4773 42.2614 17.4053 41.6 18.152 40.704C18.8987 39.808 19.464 38.6667 19.848 37.28C20.2533 35.872 20.456 34.208 20.456 32.288V2.14402H26.664V32.16Z" fill="#3A3A3A"/>
<path d="M47.5185 25.408C45.2572 26.6027 43.5505 28.0534 42.3985 29.76C41.2678 31.4667 40.7025 33.3227 40.7025 35.328C40.7025 36.7147 40.9585 37.9414 41.4705 39.008C41.9825 40.0534 42.6545 40.9387 43.4865 41.664C44.3185 42.3894 45.2678 42.944 46.3345 43.328C47.4012 43.6907 48.4892 43.872 49.5985 43.872C51.9878 43.872 54.1318 43.4347 56.0305 42.56C57.9505 41.6854 59.6252 40.512 61.0545 39.04L47.5185 25.408ZM77.0865 48H71.5505C70.9318 48 70.4305 47.9254 70.0465 47.776C69.6625 47.6267 69.2465 47.3174 68.7985 46.848L64.1585 42.176C62.1532 44.1174 59.8385 45.664 57.2145 46.816C54.6118 47.9467 51.7425 48.512 48.6065 48.512C46.8998 48.512 45.2252 48.224 43.5825 47.648C41.9612 47.072 40.4998 46.24 39.1985 45.152C37.8972 44.0427 36.8518 42.6987 36.0625 41.12C35.2732 39.5414 34.8785 37.76 34.8785 35.776C34.8785 34.2827 35.1238 32.8747 35.6145 31.552C36.1265 30.208 36.8305 28.9707 37.7265 27.84C38.6225 26.7094 39.6785 25.696 40.8945 24.8C42.1105 23.904 43.4438 23.136 44.8945 22.496C43.5932 20.832 42.6332 19.232 42.0145 17.696C41.3958 16.1387 41.0865 14.528 41.0865 12.864C41.0865 11.3067 41.3638 9.84536 41.9185 8.48002C42.4945 7.11469 43.3158 5.93069 44.3825 4.92802C45.4492 3.90402 46.7398 3.10402 48.2545 2.52802C49.7905 1.93069 51.5078 1.63202 53.4065 1.63202C55.0918 1.63202 56.6278 1.90935 58.0145 2.46402C59.4012 2.99735 60.5958 3.71202 61.5985 4.60802C62.6012 5.50402 63.3905 6.54936 63.9665 7.74402C64.5638 8.91735 64.9052 10.144 64.9905 11.424L61.4385 12.128C60.7345 12.2987 60.2118 11.968 59.8705 11.136C59.7212 10.5814 59.4758 10.0054 59.1345 9.40802C58.8145 8.81069 58.3878 8.26669 57.8545 7.77602C57.3425 7.28535 56.7132 6.88002 55.9665 6.56002C55.2412 6.24002 54.3878 6.08002 53.4065 6.08002C52.3398 6.08002 51.3692 6.25069 50.4945 6.59202C49.6412 6.93335 48.9052 7.41335 48.2865 8.03202C47.6892 8.62935 47.2305 9.34402 46.9105 10.176C46.5905 10.9867 46.4305 11.872 46.4305 12.832C46.4305 13.5787 46.5158 14.2934 46.6865 14.976C46.8572 15.6587 47.1238 16.352 47.4865 17.056C47.8705 17.76 48.3505 18.4747 48.9265 19.2C49.5025 19.9254 50.1958 20.6934 51.0065 21.504L64.1905 34.912C65.0012 33.4614 65.6518 31.9574 66.1425 30.4C66.6332 28.8214 66.9532 27.2534 67.1025 25.696C67.1452 25.2907 67.2732 24.9707 67.4865 24.736C67.6998 24.5014 67.9985 24.384 68.3825 24.384H71.8705C71.8492 26.8374 71.4652 29.248 70.7185 31.616C69.9718 33.9627 68.8945 36.1707 67.4865 38.24L77.0865 48Z" fill="#3A3A3A"/>
<path d="M99.577 43.072C101.348 43.072 102.873 42.8694 104.153 42.464C105.433 42.0587 106.478 41.4934 107.289 40.768C108.121 40.0214 108.729 39.1467 109.113 38.144C109.497 37.12 109.689 36 109.689 34.784C109.689 32.416 108.846 30.5494 107.161 29.184C105.476 27.7974 102.948 27.104 99.577 27.104H89.657V43.072H99.577ZM89.657 7.04002V22.688H97.849C99.5983 22.688 101.113 22.496 102.393 22.112C103.694 21.728 104.761 21.1947 105.593 20.512C106.446 19.8294 107.076 19.008 107.481 18.048C107.886 17.0667 108.089 16 108.089 14.848C108.089 12.1387 107.278 10.1654 105.657 8.92802C104.036 7.66935 101.518 7.04002 98.105 7.04002H89.657ZM98.105 2.14402C100.921 2.14402 103.342 2.42135 105.369 2.97602C107.417 3.53069 109.092 4.32002 110.393 5.34402C111.716 6.36802 112.686 7.62669 113.305 9.12002C113.924 10.592 114.233 12.256 114.233 14.112C114.233 15.2427 114.052 16.3307 113.689 17.376C113.348 18.4 112.825 19.36 112.121 20.256C111.417 21.152 110.521 21.9627 109.433 22.688C108.366 23.392 107.108 23.968 105.657 24.416C109.028 25.056 111.556 26.2614 113.241 28.032C114.948 29.7814 115.801 32.0854 115.801 34.944C115.801 36.8854 115.438 38.656 114.713 40.256C114.009 41.856 112.964 43.232 111.577 44.384C110.212 45.536 108.526 46.432 106.521 47.072C104.516 47.6907 102.233 48 99.673 48H83.481V2.14402H98.105Z" fill="#3A3A3A"/>
<path d="M26.664 32.16C26.664 34.72 26.344 37.0134 25.704 39.04C25.0853 41.0667 24.1573 42.784 22.92 44.192C21.704 45.5787 20.2 46.6454 18.408 47.392C16.616 48.1387 14.5573 48.512 12.232 48.512C10.12 48.512 7.96534 48.2134 5.76801 47.616C5.81067 46.9974 5.86401 46.3894 5.92801 45.792C5.99201 45.1734 6.04534 44.5654 6.08801 43.968C6.13067 43.6054 6.25867 43.3174 6.47201 43.104C6.70667 42.8694 7.05867 42.752 7.52801 42.752C7.91201 42.752 8.41334 42.848 9.03201 43.04C9.67201 43.232 10.5253 43.328 11.592 43.328C13 43.328 14.2587 43.1147 15.368 42.688C16.4773 42.2614 17.4053 41.6 18.152 40.704C18.8987 39.808 19.464 38.6667 19.848 37.28C20.2533 35.872 20.456 34.208 20.456 32.288V2.14402H26.664V32.16Z" stroke="white" stroke-width="2" mask="url(#path-1-outside-1_101_8)"/>
<path d="M47.5185 25.408C45.2572 26.6027 43.5505 28.0534 42.3985 29.76C41.2678 31.4667 40.7025 33.3227 40.7025 35.328C40.7025 36.7147 40.9585 37.9414 41.4705 39.008C41.9825 40.0534 42.6545 40.9387 43.4865 41.664C44.3185 42.3894 45.2678 42.944 46.3345 43.328C47.4012 43.6907 48.4892 43.872 49.5985 43.872C51.9878 43.872 54.1318 43.4347 56.0305 42.56C57.9505 41.6854 59.6252 40.512 61.0545 39.04L47.5185 25.408ZM77.0865 48H71.5505C70.9318 48 70.4305 47.9254 70.0465 47.776C69.6625 47.6267 69.2465 47.3174 68.7985 46.848L64.1585 42.176C62.1532 44.1174 59.8385 45.664 57.2145 46.816C54.6118 47.9467 51.7425 48.512 48.6065 48.512C46.8998 48.512 45.2252 48.224 43.5825 47.648C41.9612 47.072 40.4998 46.24 39.1985 45.152C37.8972 44.0427 36.8518 42.6987 36.0625 41.12C35.2732 39.5414 34.8785 37.76 34.8785 35.776C34.8785 34.2827 35.1238 32.8747 35.6145 31.552C36.1265 30.208 36.8305 28.9707 37.7265 27.84C38.6225 26.7094 39.6785 25.696 40.8945 24.8C42.1105 23.904 43.4438 23.136 44.8945 22.496C43.5932 20.832 42.6332 19.232 42.0145 17.696C41.3958 16.1387 41.0865 14.528 41.0865 12.864C41.0865 11.3067 41.3638 9.84536 41.9185 8.48002C42.4945 7.11469 43.3158 5.93069 44.3825 4.92802C45.4492 3.90402 46.7398 3.10402 48.2545 2.52802C49.7905 1.93069 51.5078 1.63202 53.4065 1.63202C55.0918 1.63202 56.6278 1.90935 58.0145 2.46402C59.4012 2.99735 60.5958 3.71202 61.5985 4.60802C62.6012 5.50402 63.3905 6.54936 63.9665 7.74402C64.5638 8.91735 64.9052 10.144 64.9905 11.424L61.4385 12.128C60.7345 12.2987 60.2118 11.968 59.8705 11.136C59.7212 10.5814 59.4758 10.0054 59.1345 9.40802C58.8145 8.81069 58.3878 8.26669 57.8545 7.77602C57.3425 7.28535 56.7132 6.88002 55.9665 6.56002C55.2412 6.24002 54.3878 6.08002 53.4065 6.08002C52.3398 6.08002 51.3692 6.25069 50.4945 6.59202C49.6412 6.93335 48.9052 7.41335 48.2865 8.03202C47.6892 8.62935 47.2305 9.34402 46.9105 10.176C46.5905 10.9867 46.4305 11.872 46.4305 12.832C46.4305 13.5787 46.5158 14.2934 46.6865 14.976C46.8572 15.6587 47.1238 16.352 47.4865 17.056C47.8705 17.76 48.3505 18.4747 48.9265 19.2C49.5025 19.9254 50.1958 20.6934 51.0065 21.504L64.1905 34.912C65.0012 33.4614 65.6518 31.9574 66.1425 30.4C66.6332 28.8214 66.9532 27.2534 67.1025 25.696C67.1452 25.2907 67.2732 24.9707 67.4865 24.736C67.6998 24.5014 67.9985 24.384 68.3825 24.384H71.8705C71.8492 26.8374 71.4652 29.248 70.7185 31.616C69.9718 33.9627 68.8945 36.1707 67.4865 38.24L77.0865 48Z" stroke="white" stroke-width="2" mask="url(#path-1-outside-1_101_8)"/>
<path d="M99.577 43.072C101.348 43.072 102.873 42.8694 104.153 42.464C105.433 42.0587 106.478 41.4934 107.289 40.768C108.121 40.0214 108.729 39.1467 109.113 38.144C109.497 37.12 109.689 36 109.689 34.784C109.689 32.416 108.846 30.5494 107.161 29.184C105.476 27.7974 102.948 27.104 99.577 27.104H89.657V43.072H99.577ZM89.657 7.04002V22.688H97.849C99.5983 22.688 101.113 22.496 102.393 22.112C103.694 21.728 104.761 21.1947 105.593 20.512C106.446 19.8294 107.076 19.008 107.481 18.048C107.886 17.0667 108.089 16 108.089 14.848C108.089 12.1387 107.278 10.1654 105.657 8.92802C104.036 7.66935 101.518 7.04002 98.105 7.04002H89.657ZM98.105 2.14402C100.921 2.14402 103.342 2.42135 105.369 2.97602C107.417 3.53069 109.092 4.32002 110.393 5.34402C111.716 6.36802 112.686 7.62669 113.305 9.12002C113.924 10.592 114.233 12.256 114.233 14.112C114.233 15.2427 114.052 16.3307 113.689 17.376C113.348 18.4 112.825 19.36 112.121 20.256C111.417 21.152 110.521 21.9627 109.433 22.688C108.366 23.392 107.108 23.968 105.657 24.416C109.028 25.056 111.556 26.2614 113.241 28.032C114.948 29.7814 115.801 32.0854 115.801 34.944C115.801 36.8854 115.438 38.656 114.713 40.256C114.009 41.856 112.964 43.232 111.577 44.384C110.212 45.536 108.526 46.432 106.521 47.072C104.516 47.6907 102.233 48 99.673 48H83.481V2.14402H98.105Z" stroke="white" stroke-width="2" mask="url(#path-1-outside-1_101_8)"/>
</g>
<defs>
<filter id="filter0_d_101_8" x="0.713928" y="0.632019" width="116.087" height="52.88" filterUnits="userSpaceOnUse" color-interpolation-filters="sRGB">
<feFlood flood-opacity="0" result="BackgroundImageFix"/>
<feColorMatrix in="SourceAlpha" type="matrix" values="0 0 0 0 0 0 0 0 0 0 0 0 0 0 0 0 0 0 127 0" result="hardAlpha"/>
<feOffset dx="-4" dy="4"/>
<feComposite in2="hardAlpha" operator="out"/>
<feColorMatrix type="matrix" values="0 0 0 0 0.227451 0 0 0 0 0.227451 0 0 0 0 0.227451 0 0 0 1 0"/>
<feBlend mode="normal" in2="BackgroundImageFix" result="effect1_dropShadow_101_8"/>
<feBlend mode="normal" in="SourceGraphic" in2="effect1_dropShadow_101_8" result="shape"/>
</filter>
</defs>
</svg>
