<svg width="80" height="51" viewBox="0 0 80 51" fill="none" xmlns="http://www.w3.org/2000/svg">
<g filter="url(#filter0_d_102_5)">
<mask id="path-1-outside-1_102_5" maskUnits="userSpaceOnUse" x="4.48438" y="0.046875" width="71" height="42" fill="black">
<rect fill="white" x="4.48438" y="0.046875" width="71" height="42"/>
<path d="M20.8594 3.67188C20.7344 5.54688 20.6719 10.5156 20.6719 18.5781C20.6719 19.5781 20.6719 20.9062 20.6719 22.5625C20.7031 24.2188 20.7188 25.4062 20.7188 26.125C20.7188 29.0312 20.5625 31.3594 20.25 33.1094C19.9375 34.8906 19.3281 36.4219 18.4219 37.7031C16.8281 39.9219 14.5312 41.0312 11.5312 41.0312C9.5 41.0312 7.98438 40.6406 6.98438 39.8594C5.98438 39.1094 5.48438 38.2031 5.48438 37.1406C5.48438 36.2969 5.78125 35.5625 6.375 34.9375C6.9375 34.3438 7.65625 34.0469 8.53125 34.0469C9.5 34.0469 10.2656 34.3125 10.8281 34.8438C11.3906 35.4062 11.6719 36.0938 11.6719 36.9062C11.6719 38.1562 11.0469 39.1719 9.79688 39.9531C10.2031 40.1719 10.7344 40.2812 11.3906 40.2812C12.0781 40.3125 12.7344 40.2031 13.3594 39.9531C13.9844 39.7344 14.4219 39.4375 14.6719 39.0625C15.2031 38.1875 15.5625 37.3438 15.75 36.5312C15.9375 35.7188 16.0938 34.2969 16.2188 32.2656C16.375 29.3906 16.4531 24.0781 16.4531 16.3281C16.4531 8.79688 16.3906 4.54688 16.2656 3.57812C16.2031 3.23438 15.6094 2.9375 14.4844 2.6875L12.7969 2.35938V1.65625C14.2656 1.78125 16.1406 1.84375 18.4219 1.84375C20.7969 1.84375 22.6719 1.78125 24.0469 1.65625V2.59375C23.7031 2.59375 23.3438 2.625 22.9688 2.6875C22.5938 2.71875 22.25 2.76562 21.9375 2.82812C21.625 2.85938 21.375 2.95312 21.1875 3.10938C21 3.26562 20.8906 3.45312 20.8594 3.67188Z"/>
<path d="M35.0977 17.6055C36.4805 16.8789 37.3828 16.293 37.8047 15.8477C38.2266 15.3789 38.4375 14.5352 38.4375 13.3164C38.4375 12.2383 38.1914 11.3945 37.6992 10.7852C37.207 10.1523 36.5273 9.83594 35.6602 9.83594C34.8633 9.83594 34.2188 10.2109 33.7266 10.9609C33.2344 11.6875 32.9883 12.5664 32.9883 13.5977C32.9883 14.6523 33.6914 15.9883 35.0977 17.6055ZM42.4102 30.1562L41.0391 28.6445C39.2578 30.4727 37.2539 31.3867 35.0273 31.3867C32.1914 31.3867 30.2578 30.6602 29.2266 29.207C29.0156 28.9023 28.8164 28.6328 28.6289 28.3984C28.4648 28.1641 28.3242 27.8125 28.207 27.3438C28.0898 26.8516 28.0312 26.2422 28.0312 25.5156C28.0312 25.5156 28.0312 25.5039 28.0312 25.4805C28.0312 24.1914 28.2773 23.1367 28.7695 22.3164C29.2852 21.4961 30.0938 20.6641 31.1953 19.8203C31.6641 19.4922 32.2148 19.1406 32.8477 18.7656C32.2852 18.1328 31.793 17.3477 31.3711 16.4102C30.9492 15.4492 30.7383 14.5234 30.7383 13.6328C30.7383 12.1562 31.2656 11.0195 32.3203 10.2227C33.375 9.42578 34.4648 9.02734 35.5898 9.02734C37.1367 9.02734 38.3672 9.34375 39.2812 9.97656C40.2188 10.6094 40.6875 11.582 40.6875 12.8945C40.6875 13.9961 40.3008 14.9453 39.5273 15.7422C38.7773 16.5391 37.5352 17.4531 35.8008 18.4844C37.3242 20.5469 39.3867 23.1133 41.9883 26.1836C42.4336 25.5977 42.7266 25.0352 42.8672 24.4961C43.0312 23.957 43.1133 23.2539 43.1133 22.3867C43.1133 21.9648 42.9609 21.543 42.6562 21.1211C42.2109 20.4883 41.5547 20.1836 40.6875 20.207L40.582 19.6445H47.4375L47.4023 20.3125C46.1836 20.3125 45.4336 20.4414 45.1523 20.6992C44.7539 21.0977 44.5547 21.6836 44.5547 22.457C44.5547 23.1367 44.3203 23.9219 43.8516 24.8125C43.4062 25.7031 42.9961 26.3711 42.6211 26.8164L43.5 27.9062C43.5938 28.0703 43.7461 28.2695 43.957 28.5039C44.168 28.7383 44.3789 28.9609 44.5898 29.1719C44.8008 29.3828 45.0469 29.5703 45.3281 29.7344C45.6094 29.875 45.8906 29.9453 46.1719 29.9453C46.8984 29.9453 47.3789 29.7344 47.6133 29.3125C47.8477 28.8906 47.9648 28.2578 47.9648 27.4141L48.668 27.5195C48.668 30.0977 47.7188 31.375 45.8203 31.3516C44.2266 31.3516 43.0898 30.9531 42.4102 30.1562ZM36.1875 29.9102C37.1016 29.9102 37.8398 29.793 38.4023 29.5586C38.9648 29.3008 39.6445 28.8086 40.4414 28.082C39.2461 26.6055 37.8047 24.8477 36.1172 22.8086C34.4531 20.7461 33.6094 19.7148 33.5859 19.7148C32.8359 20.0664 32.2383 20.5469 31.793 21.1562C31.3711 21.7656 31.0898 22.3047 30.9492 22.7734C30.832 23.2422 30.7734 23.6992 30.7734 24.1445C30.7734 25.2227 31.1836 26.3477 32.0039 27.5195C33.1523 29.1133 34.5469 29.9102 36.1875 29.9102Z"/>
<path d="M60.1523 2.125V14.875L63.1992 14.6875C64.2305 14.625 65.0742 14.3906 65.7305 13.9844C66.418 13.5469 66.9023 12.9844 67.1836 12.2969C67.4648 11.6094 67.6523 11 67.7461 10.4688C67.8398 9.90625 67.8867 9.28125 67.8867 8.59375C67.8867 7.34375 67.5586 6.125 66.9023 4.9375C66.2773 3.71875 65.418 2.84375 64.3242 2.3125C63.918 2.125 63.3398 2.03125 62.5898 2.03125C62.3398 2.03125 61.9336 2.04688 61.3711 2.07812C60.8086 2.10938 60.4023 2.125 60.1523 2.125ZM74.2617 23.4062C74.2617 24.25 74.0586 25.1094 73.6523 25.9844C73.2773 26.8281 72.6992 27.6562 71.918 28.4688C71.168 29.25 70.0898 29.8906 68.6836 30.3906C67.2773 30.8906 65.6523 31.1406 63.8086 31.1406C63.5898 31.1406 62.9648 31.125 61.9336 31.0938C60.9023 31.0938 59.4648 31.0781 57.6211 31.0469C55.7773 31.0469 53.7773 31.0469 51.6211 31.0469V30.2969L52.4648 30.1562C53.0273 30.0938 53.6055 29.9375 54.1992 29.6875C54.8242 29.4062 55.168 29.0938 55.2305 28.75C55.2305 27.1875 55.2305 24.1719 55.2305 19.7031C55.2305 15.2344 55.2305 11.9688 55.2305 9.90625C55.2305 6.625 55.2305 4.39062 55.2305 3.20312C55.168 2.85938 54.6523 2.5625 53.6836 2.3125L52.2773 1.84375V1.04688C54.1211 1.04688 56.3711 1.0625 59.0273 1.09375C61.7148 1.09375 63.4492 1.09375 64.2305 1.09375C65.418 1.09375 66.5898 1.375 67.7461 1.9375C68.9336 2.5 69.9648 3.375 70.8398 4.5625C71.7148 5.71875 72.1523 7.03125 72.1523 8.5C72.1523 8.53125 72.1523 8.5625 72.1523 8.59375C72.1211 10.25 71.5273 11.7812 70.3711 13.1875C69.2461 14.5625 67.668 15.2812 65.6367 15.3438C71.3867 15.875 74.2617 18.5625 74.2617 23.4062ZM60.0117 16.1406L60.0586 27.8125C60.0586 28.8438 60.2148 29.5 60.5273 29.7812C60.8398 30.0312 61.3867 30.1562 62.168 30.1562C64.7617 30.1562 66.6367 29.6719 67.793 28.7031C68.9492 27.7031 69.5273 26.0781 69.5273 23.8281C69.5273 19.1406 67.4023 16.5938 63.1523 16.1875L60.0117 16.1406Z"/>
</mask>
<path d="M20.8594 3.67188C20.7344 5.54688 20.6719 10.5156 20.6719 18.5781C20.6719 19.5781 20.6719 20.9062 20.6719 22.5625C20.7031 24.2188 20.7188 25.4062 20.7188 26.125C20.7188 29.0312 20.5625 31.3594 20.25 33.1094C19.9375 34.8906 19.3281 36.4219 18.4219 37.7031C16.8281 39.9219 14.5312 41.0312 11.5312 41.0312C9.5 41.0312 7.98438 40.6406 6.98438 39.8594C5.98438 39.1094 5.48438 38.2031 5.48438 37.1406C5.48438 36.2969 5.78125 35.5625 6.375 34.9375C6.9375 34.3438 7.65625 34.0469 8.53125 34.0469C9.5 34.0469 10.2656 34.3125 10.8281 34.8438C11.3906 35.4062 11.6719 36.0938 11.6719 36.9062C11.6719 38.1562 11.0469 39.1719 9.79688 39.9531C10.2031 40.1719 10.7344 40.2812 11.3906 40.2812C12.0781 40.3125 12.7344 40.2031 13.3594 39.9531C13.9844 39.7344 14.4219 39.4375 14.6719 39.0625C15.2031 38.1875 15.5625 37.3438 15.75 36.5312C15.9375 35.7188 16.0938 34.2969 16.2188 32.2656C16.375 29.3906 16.4531 24.0781 16.4531 16.3281C16.4531 8.79688 16.3906 4.54688 16.2656 3.57812C16.2031 3.23438 15.6094 2.9375 14.4844 2.6875L12.7969 2.35938V1.65625C14.2656 1.78125 16.1406 1.84375 18.4219 1.84375C20.7969 1.84375 22.6719 1.78125 24.0469 1.65625V2.59375C23.7031 2.59375 23.3438 2.625 22.9688 2.6875C22.5938 2.71875 22.25 2.76562 21.9375 2.82812C21.625 2.85938 21.375 2.95312 21.1875 3.10938C21 3.26562 20.8906 3.45312 20.8594 3.67188Z" fill="#403233"/>
<path d="M35.0977 17.6055C36.4805 16.8789 37.3828 16.293 37.8047 15.8477C38.2266 15.3789 38.4375 14.5352 38.4375 13.3164C38.4375 12.2383 38.1914 11.3945 37.6992 10.7852C37.207 10.1523 36.5273 9.83594 35.6602 9.83594C34.8633 9.83594 34.2188 10.2109 33.7266 10.9609C33.2344 11.6875 32.9883 12.5664 32.9883 13.5977C32.9883 14.6523 33.6914 15.9883 35.0977 17.6055ZM42.4102 30.1562L41.0391 28.6445C39.2578 30.4727 37.2539 31.3867 35.0273 31.3867C32.1914 31.3867 30.2578 30.6602 29.2266 29.207C29.0156 28.9023 28.8164 28.6328 28.6289 28.3984C28.4648 28.1641 28.3242 27.8125 28.207 27.3438C28.0898 26.8516 28.0312 26.2422 28.0312 25.5156C28.0312 25.5156 28.0312 25.5039 28.0312 25.4805C28.0312 24.1914 28.2773 23.1367 28.7695 22.3164C29.2852 21.4961 30.0938 20.6641 31.1953 19.8203C31.6641 19.4922 32.2148 19.1406 32.8477 18.7656C32.2852 18.1328 31.793 17.3477 31.3711 16.4102C30.9492 15.4492 30.7383 14.5234 30.7383 13.6328C30.7383 12.1562 31.2656 11.0195 32.3203 10.2227C33.375 9.42578 34.4648 9.02734 35.5898 9.02734C37.1367 9.02734 38.3672 9.34375 39.2812 9.97656C40.2188 10.6094 40.6875 11.582 40.6875 12.8945C40.6875 13.9961 40.3008 14.9453 39.5273 15.7422C38.7773 16.5391 37.5352 17.4531 35.8008 18.4844C37.3242 20.5469 39.3867 23.1133 41.9883 26.1836C42.4336 25.5977 42.7266 25.0352 42.8672 24.4961C43.0312 23.957 43.1133 23.2539 43.1133 22.3867C43.1133 21.9648 42.9609 21.543 42.6562 21.1211C42.2109 20.4883 41.5547 20.1836 40.6875 20.207L40.582 19.6445H47.4375L47.4023 20.3125C46.1836 20.3125 45.4336 20.4414 45.1523 20.6992C44.7539 21.0977 44.5547 21.6836 44.5547 22.457C44.5547 23.1367 44.3203 23.9219 43.8516 24.8125C43.4062 25.7031 42.9961 26.3711 42.6211 26.8164L43.5 27.9062C43.5938 28.0703 43.7461 28.2695 43.957 28.5039C44.168 28.7383 44.3789 28.9609 44.5898 29.1719C44.8008 29.3828 45.0469 29.5703 45.3281 29.7344C45.6094 29.875 45.8906 29.9453 46.1719 29.9453C46.8984 29.9453 47.3789 29.7344 47.6133 29.3125C47.8477 28.8906 47.9648 28.2578 47.9648 27.4141L48.668 27.5195C48.668 30.0977 47.7188 31.375 45.8203 31.3516C44.2266 31.3516 43.0898 30.9531 42.4102 30.1562ZM36.1875 29.9102C37.1016 29.9102 37.8398 29.793 38.4023 29.5586C38.9648 29.3008 39.6445 28.8086 40.4414 28.082C39.2461 26.6055 37.8047 24.8477 36.1172 22.8086C34.4531 20.7461 33.6094 19.7148 33.5859 19.7148C32.8359 20.0664 32.2383 20.5469 31.793 21.1562C31.3711 21.7656 31.0898 22.3047 30.9492 22.7734C30.832 23.2422 30.7734 23.6992 30.7734 24.1445C30.7734 25.2227 31.1836 26.3477 32.0039 27.5195C33.1523 29.1133 34.5469 29.9102 36.1875 29.9102Z" fill="#403233"/>
<path d="M60.1523 2.125V14.875L63.1992 14.6875C64.2305 14.625 65.0742 14.3906 65.7305 13.9844C66.418 13.5469 66.9023 12.9844 67.1836 12.2969C67.4648 11.6094 67.6523 11 67.7461 10.4688C67.8398 9.90625 67.8867 9.28125 67.8867 8.59375C67.8867 7.34375 67.5586 6.125 66.9023 4.9375C66.2773 3.71875 65.418 2.84375 64.3242 2.3125C63.918 2.125 63.3398 2.03125 62.5898 2.03125C62.3398 2.03125 61.9336 2.04688 61.3711 2.07812C60.8086 2.10938 60.4023 2.125 60.1523 2.125ZM74.2617 23.4062C74.2617 24.25 74.0586 25.1094 73.6523 25.9844C73.2773 26.8281 72.6992 27.6562 71.918 28.4688C71.168 29.25 70.0898 29.8906 68.6836 30.3906C67.2773 30.8906 65.6523 31.1406 63.8086 31.1406C63.5898 31.1406 62.9648 31.125 61.9336 31.0938C60.9023 31.0938 59.4648 31.0781 57.6211 31.0469C55.7773 31.0469 53.7773 31.0469 51.6211 31.0469V30.2969L52.4648 30.1562C53.0273 30.0938 53.6055 29.9375 54.1992 29.6875C54.8242 29.4062 55.168 29.0938 55.2305 28.75C55.2305 27.1875 55.2305 24.1719 55.2305 19.7031C55.2305 15.2344 55.2305 11.9688 55.2305 9.90625C55.2305 6.625 55.2305 4.39062 55.2305 3.20312C55.168 2.85938 54.6523 2.5625 53.6836 2.3125L52.2773 1.84375V1.04688C54.1211 1.04688 56.3711 1.0625 59.0273 1.09375C61.7148 1.09375 63.4492 1.09375 64.2305 1.09375C65.418 1.09375 66.5898 1.375 67.7461 1.9375C68.9336 2.5 69.9648 3.375 70.8398 4.5625C71.7148 5.71875 72.1523 7.03125 72.1523 8.5C72.1523 8.53125 72.1523 8.5625 72.1523 8.59375C72.1211 10.25 71.5273 11.7812 70.3711 13.1875C69.2461 14.5625 67.668 15.2812 65.6367 15.3438C71.3867 15.875 74.2617 18.5625 74.2617 23.4062ZM60.0117 16.1406L60.0586 27.8125C60.0586 28.8438 60.2148 29.5 60.5273 29.7812C60.8398 30.0312 61.3867 30.1562 62.168 30.1562C64.7617 30.1562 66.6367 29.6719 67.793 28.7031C68.9492 27.7031 69.5273 26.0781 69.5273 23.8281C69.5273 19.1406 67.4023 16.5938 63.1523 16.1875L60.0117 16.1406Z" fill="#403233"/>
<path d="M20.8594 3.67188C20.7344 5.54688 20.6719 10.5156 20.6719 18.5781C20.6719 19.5781 20.6719 20.9062 20.6719 22.5625C20.7031 24.2188 20.7188 25.4062 20.7188 26.125C20.7188 29.0312 20.5625 31.3594 20.25 33.1094C19.9375 34.8906 19.3281 36.4219 18.4219 37.7031C16.8281 39.9219 14.5312 41.0312 11.5312 41.0312C9.5 41.0312 7.98438 40.6406 6.98438 39.8594C5.98438 39.1094 5.48438 38.2031 5.48438 37.1406C5.48438 36.2969 5.78125 35.5625 6.375 34.9375C6.9375 34.3438 7.65625 34.0469 8.53125 34.0469C9.5 34.0469 10.2656 34.3125 10.8281 34.8438C11.3906 35.4062 11.6719 36.0938 11.6719 36.9062C11.6719 38.1562 11.0469 39.1719 9.79688 39.9531C10.2031 40.1719 10.7344 40.2812 11.3906 40.2812C12.0781 40.3125 12.7344 40.2031 13.3594 39.9531C13.9844 39.7344 14.4219 39.4375 14.6719 39.0625C15.2031 38.1875 15.5625 37.3438 15.75 36.5312C15.9375 35.7188 16.0938 34.2969 16.2188 32.2656C16.375 29.3906 16.4531 24.0781 16.4531 16.3281C16.4531 8.79688 16.3906 4.54688 16.2656 3.57812C16.2031 3.23438 15.6094 2.9375 14.4844 2.6875L12.7969 2.35938V1.65625C14.2656 1.78125 16.1406 1.84375 18.4219 1.84375C20.7969 1.84375 22.6719 1.78125 24.0469 1.65625V2.59375C23.7031 2.59375 23.3438 2.625 22.9688 2.6875C22.5938 2.71875 22.25 2.76562 21.9375 2.82812C21.625 2.85938 21.375 2.95312 21.1875 3.10938C21 3.26562 20.8906 3.45312 20.8594 3.67188Z" stroke="#E4923C" stroke-width="2" mask="url(#path-1-outside-1_102_5)"/>
<path d="M35.0977 17.6055C36.4805 16.8789 37.3828 16.293 37.8047 15.8477C38.2266 15.3789 38.4375 14.5352 38.4375 13.3164C38.4375 12.2383 38.1914 11.3945 37.6992 10.7852C37.207 10.1523 36.5273 9.83594 35.6602 9.83594C34.8633 9.83594 34.2188 10.2109 33.7266 10.9609C33.2344 11.6875 32.9883 12.5664 32.9883 13.5977C32.9883 14.6523 33.6914 15.9883 35.0977 17.6055ZM42.4102 30.1562L41.0391 28.6445C39.2578 30.4727 37.2539 31.3867 35.0273 31.3867C32.1914 31.3867 30.2578 30.6602 29.2266 29.207C29.0156 28.9023 28.8164 28.6328 28.6289 28.3984C28.4648 28.1641 28.3242 27.8125 28.207 27.3438C28.0898 26.8516 28.0312 26.2422 28.0312 25.5156C28.0312 25.5156 28.0312 25.5039 28.0312 25.4805C28.0312 24.1914 28.2773 23.1367 28.7695 22.3164C29.2852 21.4961 30.0938 20.6641 31.1953 19.8203C31.6641 19.4922 32.2148 19.1406 32.8477 18.7656C32.2852 18.1328 31.793 17.3477 31.3711 16.4102C30.9492 15.4492 30.7383 14.5234 30.7383 13.6328C30.7383 12.1562 31.2656 11.0195 32.3203 10.2227C33.375 9.42578 34.4648 9.02734 35.5898 9.02734C37.1367 9.02734 38.3672 9.34375 39.2812 9.97656C40.2188 10.6094 40.6875 11.582 40.6875 12.8945C40.6875 13.9961 40.3008 14.9453 39.5273 15.7422C38.7773 16.5391 37.5352 17.4531 35.8008 18.4844C37.3242 20.5469 39.3867 23.1133 41.9883 26.1836C42.4336 25.5977 42.7266 25.0352 42.8672 24.4961C43.0312 23.957 43.1133 23.2539 43.1133 22.3867C43.1133 21.9648 42.9609 21.543 42.6562 21.1211C42.2109 20.4883 41.5547 20.1836 40.6875 20.207L40.582 19.6445H47.4375L47.4023 20.3125C46.1836 20.3125 45.4336 20.4414 45.1523 20.6992C44.7539 21.0977 44.5547 21.6836 44.5547 22.457C44.5547 23.1367 44.3203 23.9219 43.8516 24.8125C43.4062 25.7031 42.9961 26.3711 42.6211 26.8164L43.5 27.9062C43.5938 28.0703 43.7461 28.2695 43.957 28.5039C44.168 28.7383 44.3789 28.9609 44.5898 29.1719C44.8008 29.3828 45.0469 29.5703 45.3281 29.7344C45.6094 29.875 45.8906 29.9453 46.1719 29.9453C46.8984 29.9453 47.3789 29.7344 47.6133 29.3125C47.8477 28.8906 47.9648 28.2578 47.9648 27.4141L48.668 27.5195C48.668 30.0977 47.7188 31.375 45.8203 31.3516C44.2266 31.3516 43.0898 30.9531 42.4102 30.1562ZM36.1875 29.9102C37.1016 29.9102 37.8398 29.793 38.4023 29.5586C38.9648 29.3008 39.6445 28.8086 40.4414 28.082C39.2461 26.6055 37.8047 24.8477 36.1172 22.8086C34.4531 20.7461 33.6094 19.7148 33.5859 19.7148C32.8359 20.0664 32.2383 20.5469 31.793 21.1562C31.3711 21.7656 31.0898 22.3047 30.9492 22.7734C30.832 23.2422 30.7734 23.6992 30.7734 24.1445C30.7734 25.2227 31.1836 26.3477 32.0039 27.5195C33.1523 29.1133 34.5469 29.9102 36.1875 29.9102Z" stroke="#E4923C" stroke-width="2" mask="url(#path-1-outside-1_102_5)"/>
<path d="M60.1523 2.125V14.875L63.1992 14.6875C64.2305 14.625 65.0742 14.3906 65.7305 13.9844C66.418 13.5469 66.9023 12.9844 67.1836 12.2969C67.4648 11.6094 67.6523 11 67.7461 10.4688C67.8398 9.90625 67.8867 9.28125 67.8867 8.59375C67.8867 7.34375 67.5586 6.125 66.9023 4.9375C66.2773 3.71875 65.418 2.84375 64.3242 2.3125C63.918 2.125 63.3398 2.03125 62.5898 2.03125C62.3398 2.03125 61.9336 2.04688 61.3711 2.07812C60.8086 2.10938 60.4023 2.125 60.1523 2.125ZM74.2617 23.4062C74.2617 24.25 74.0586 25.1094 73.6523 25.9844C73.2773 26.8281 72.6992 27.6562 71.918 28.4688C71.168 29.25 70.0898 29.8906 68.6836 30.3906C67.2773 30.8906 65.6523 31.1406 63.8086 31.1406C63.5898 31.1406 62.9648 31.125 61.9336 31.0938C60.9023 31.0938 59.4648 31.0781 57.6211 31.0469C55.7773 31.0469 53.7773 31.0469 51.6211 31.0469V30.2969L52.4648 30.1562C53.0273 30.0938 53.6055 29.9375 54.1992 29.6875C54.8242 29.4062 55.168 29.0938 55.2305 28.75C55.2305 27.1875 55.2305 24.1719 55.2305 19.7031C55.2305 15.2344 55.2305 11.9688 55.2305 9.90625C55.2305 6.625 55.2305 4.39062 55.2305 3.20312C55.168 2.85938 54.6523 2.5625 53.6836 2.3125L52.2773 1.84375V1.04688C54.1211 1.04688 56.3711 1.0625 59.0273 1.09375C61.7148 1.09375 63.4492 1.09375 64.2305 1.09375C65.418 1.09375 66.5898 1.375 67.7461 1.9375C68.9336 2.5 69.9648 3.375 70.8398 4.5625C71.7148 5.71875 72.1523 7.03125 72.1523 8.5C72.1523 8.53125 72.1523 8.5625 72.1523 8.59375C72.1211 10.25 71.5273 11.7812 70.3711 13.1875C69.2461 14.5625 67.668 15.2812 65.6367 15.3438C71.3867 15.875 74.2617 18.5625 74.2617 23.4062ZM60.0117 16.1406L60.0586 27.8125C60.0586 28.8438 60.2148 29.5 60.5273 29.7812C60.8398 30.0312 61.3867 30.1562 62.168 30.1562C64.7617 30.1562 66.6367 29.6719 67.793 28.7031C68.9492 27.7031 69.5273 26.0781 69.5273 23.8281C69.5273 19.1406 67.4023 16.5938 63.1523 16.1875L60.0117 16.1406Z" stroke="#E4923C" stroke-width="2" mask="url(#path-1-outside-1_102_5)"/>
</g>
<defs>
<filter id="filter0_d_102_5" x="0.484375" y="0.046875" width="78.7773" height="49.9844" filterUnits="userSpaceOnUse" color-interpolation-filters="sRGB">
<feFlood flood-opacity="0" result="BackgroundImageFix"/>
<feColorMatrix in="SourceAlpha" type="matrix" values="0 0 0 0 0 0 0 0 0 0 0 0 0 0 0 0 0 0 127 0" result="hardAlpha"/>
<feOffset dy="4"/>
<feGaussianBlur stdDeviation="2"/>
<feComposite in2="hardAlpha" operator="out"/>
<feColorMatrix type="matrix" values="0 0 0 0 0 0 0 0 0 0 0 0 0 0 0 0 0 0 0.25 0"/>
<feBlend mode="normal" in2="BackgroundImageFix" result="effect1_dropShadow_102_5"/>
<feBlend mode="normal" in="SourceGraphic" in2="effect1_dropShadow_102_5" result="shape"/>
</filter>
</defs>
</svg>
